<svg width="12" height="12" fill="none" xmlns="http://www.w3.org/2000/svg"><path fill="#E5E5E5" d="M0 0h12v12H0z"/><g clip-path="url(#a)"><path fill="#fff" d="M-1189-30H91v1834h-1280z"/><path fill="#fff" d="M-1189-30H91v74h-1280z"/><rect x="-9" y="-9" width="30" height="30" rx="6" fill="#F9F9F9"/><path fill-rule="evenodd" clip-rule="evenodd" d="M7.43 7.967a3.751 3.751 0 1 0-2.861 0A8.614 8.614 0 0 0 .809 9.58l1.38 1.839A6.317 6.317 0 0 1 6 10.149c1.432 0 2.75.473 3.81 1.27l1.382-1.839A8.614 8.614 0 0 0 7.43 7.967Z" fill="#000"/></g><defs><clipPath id="a"><path fill="#fff" transform="translate(-1189 -30)" d="M0 0h1280v1834H0z"/></clipPath></defs></svg>